<?xml version="1.0" encoding="UTF-8"?>
<!DOCTYPE svg PUBLIC "-//W3C//DTD SVG 1.1//EN" "http://www.w3.org/Graphics/SVG/1.1/DTD/svg11.dtd">
<!-- Creator: CorelDRAW -->
<svg xmlns="http://www.w3.org/2000/svg" xml:space="preserve" width="2740px" height="884px" version="1.1" style="shape-rendering:geometricPrecision; text-rendering:geometricPrecision; image-rendering:optimizeQuality; fill-rule:evenodd; clip-rule:evenodd"
viewBox="0 0 286.49 92.42"
 xmlns:xlink="http://www.w3.org/1999/xlink"
 xmlns:xodm="http://www.corel.com/coreldraw/odm/2003">
 <defs>
  <style type="text/css">
   <![CDATA[
    .fil0 {fill:#733702;fill-rule:nonzero}
    .fil2 {fill:#97BF04;fill-rule:nonzero}
    .fil1 {fill:#F21905;fill-rule:nonzero}
   ]]>
  </style>
 </defs>
 <g id="Capa_x0020_1">
  <metadata id="CorelCorpID_0Corel-Layer"/>
  <g id="_2577055533344">
   <path class="fil0" d="M109.32 19.2c-1.34,0 -2.51,-0.22 -3.52,-0.67 -1,-0.45 -1.79,-1.02 -2.35,-1.71 -0.55,-0.7 -0.83,-1.42 -0.83,-2.18 0,-0.43 0.13,-0.78 0.4,-1.06 0.26,-0.27 0.62,-0.41 1.07,-0.41 0.43,0 0.74,0.12 0.95,0.37 0.21,0.25 0.39,0.54 0.54,0.87 0.26,0.53 0.68,1 1.25,1.4 0.58,0.41 1.37,0.61 2.38,0.61 0.59,0 1.13,-0.08 1.63,-0.23 0.5,-0.16 0.9,-0.42 1.2,-0.79 0.3,-0.37 0.45,-0.85 0.45,-1.43 0,-0.52 -0.14,-0.94 -0.4,-1.26 -0.27,-0.33 -0.67,-0.63 -1.2,-0.91 -0.53,-0.27 -1.2,-0.56 -2.01,-0.87 -0.62,-0.24 -1.25,-0.5 -1.88,-0.78 -0.64,-0.27 -1.21,-0.6 -1.73,-0.99 -0.51,-0.38 -0.93,-0.88 -1.25,-1.49 -0.32,-0.61 -0.47,-1.37 -0.47,-2.28 0,-1.1 0.24,-2.02 0.74,-2.76 0.5,-0.74 1.18,-1.3 2.03,-1.68 0.85,-0.37 1.8,-0.56 2.87,-0.56 0.81,0 1.55,0.1 2.22,0.31 0.67,0.2 1.25,0.49 1.76,0.86 0.51,0.37 0.9,0.78 1.19,1.24 0.28,0.45 0.44,0.94 0.47,1.45 0.02,0.43 -0.1,0.79 -0.36,1.07 -0.26,0.29 -0.61,0.43 -1.05,0.43 -0.38,0 -0.65,-0.08 -0.82,-0.23 -0.16,-0.16 -0.33,-0.4 -0.5,-0.73 -0.24,-0.51 -0.59,-0.91 -1.04,-1.21 -0.46,-0.29 -1.05,-0.43 -1.79,-0.43 -0.52,0 -0.98,0.08 -1.38,0.25 -0.41,0.17 -0.72,0.41 -0.94,0.71 -0.23,0.3 -0.34,0.68 -0.34,1.15 0,0.57 0.17,1.03 0.52,1.38 0.34,0.35 0.79,0.65 1.35,0.89 0.56,0.24 1.16,0.49 1.82,0.74 0.79,0.33 1.5,0.66 2.15,0.98 0.64,0.33 1.2,0.7 1.66,1.11 0.47,0.41 0.82,0.9 1.07,1.46 0.25,0.56 0.37,1.21 0.37,1.97 0,1.13 -0.25,2.11 -0.77,2.92 -0.51,0.82 -1.24,1.44 -2.18,1.86 -0.93,0.42 -2.03,0.63 -3.28,0.63z"/>
   <path class="fil0" d="M129.99 10.34l0 7.21c0,0.43 -0.13,0.79 -0.41,1.08 -0.28,0.3 -0.63,0.44 -1.06,0.44 -0.45,0 -0.8,-0.14 -1.08,-0.44 -0.28,-0.29 -0.41,-0.65 -0.41,-1.08l0 -6.81c0,-0.87 -0.24,-1.56 -0.72,-2.06 -0.48,-0.51 -1.14,-0.77 -1.99,-0.77 -0.6,0 -1.13,0.13 -1.59,0.39 -0.47,0.25 -0.83,0.6 -1.08,1.04 -0.26,0.44 -0.39,0.95 -0.39,1.51l0 6.7c0,0.43 -0.14,0.79 -0.43,1.08 -0.28,0.3 -0.64,0.44 -1.07,0.44 -0.43,0 -0.78,-0.14 -1.06,-0.44 -0.29,-0.29 -0.43,-0.65 -0.43,-1.08l0 -10.77c0,-0.43 0.14,-0.79 0.43,-1.07 0.28,-0.28 0.63,-0.43 1.06,-0.43 0.42,0 0.77,0.15 1.06,0.43 0.29,0.28 0.44,0.64 0.44,1.07l0 0.31c0.4,-0.52 0.84,-0.92 1.32,-1.23 0.75,-0.47 1.61,-0.71 2.57,-0.71 0.93,0 1.76,0.2 2.5,0.6 0.74,0.39 1.31,0.98 1.73,1.75 0.4,0.78 0.61,1.72 0.61,2.84z"/>
   <path class="fil0" d="M137.52 16.62c0.62,0 1.18,-0.13 1.68,-0.38 0.5,-0.26 0.9,-0.62 1.2,-1.09 0.3,-0.46 0.45,-0.98 0.45,-1.57l0 -1.21c0,-0.03 -0.02,-0.05 -0.04,-0.06 -0.03,-0.01 -0.07,0.01 -0.14,0.06 -0.23,0.16 -0.51,0.28 -0.84,0.36 -0.34,0.09 -0.68,0.16 -1.04,0.21 -0.37,0.05 -0.71,0.11 -1.04,0.18 -0.8,0.15 -1.4,0.38 -1.79,0.67 -0.38,0.29 -0.58,0.68 -0.58,1.16 0,0.46 0.17,0.86 0.51,1.18 0.33,0.33 0.88,0.49 1.63,0.49zm-0.51 2.58c-0.86,0 -1.64,-0.16 -2.33,-0.49 -0.7,-0.33 -1.25,-0.79 -1.67,-1.38 -0.41,-0.59 -0.62,-1.3 -0.62,-2.12 0,-1.21 0.41,-2.17 1.22,-2.9 0.8,-0.73 2.12,-1.22 3.94,-1.46 0.62,-0.09 1.17,-0.17 1.66,-0.26 0.49,-0.08 0.88,-0.22 1.17,-0.42 0.3,-0.2 0.44,-0.49 0.44,-0.87 0,-0.3 -0.08,-0.58 -0.23,-0.82 -0.16,-0.24 -0.39,-0.43 -0.71,-0.57 -0.32,-0.13 -0.73,-0.2 -1.22,-0.2 -0.67,0 -1.19,0.12 -1.56,0.37 -0.37,0.25 -0.67,0.53 -0.89,0.84 -0.17,0.22 -0.38,0.4 -0.63,0.54 -0.25,0.14 -0.53,0.21 -0.84,0.21 -0.41,0 -0.74,-0.12 -0.98,-0.34 -0.24,-0.22 -0.36,-0.52 -0.36,-0.9 0,-0.4 0.13,-0.79 0.39,-1.17 0.25,-0.39 0.61,-0.74 1.08,-1.06 0.46,-0.32 1.02,-0.57 1.67,-0.76 0.66,-0.19 1.37,-0.28 2.14,-0.28 1.17,0 2.13,0.21 2.88,0.64 0.74,0.43 1.3,1.02 1.67,1.78 0.37,0.75 0.55,1.61 0.55,2.57l0 5.55c0,0.18 0.03,0.32 0.07,0.41 0.04,0.08 0.14,0.14 0.3,0.18 0.25,0.07 0.49,0.21 0.72,0.44 0.22,0.22 0.33,0.52 0.33,0.9 0,0.39 -0.15,0.73 -0.46,1.02 -0.31,0.28 -0.74,0.42 -1.29,0.42 -0.65,-0.02 -1.16,-0.19 -1.51,-0.51 -0.35,-0.33 -0.56,-0.74 -0.63,-1.24l0 -0.28 -0.08 0c-0.46,0.68 -1.02,1.22 -1.67,1.59 -0.65,0.38 -1.5,0.57 -2.55,0.57z"/>
   <path class="fil0" d="M152.66 19.2c-1.23,0 -2.32,-0.31 -3.26,-0.93 -0.93,-0.62 -1.66,-1.46 -2.19,-2.52 -0.52,-1.07 -0.78,-2.26 -0.78,-3.59 0,-1.34 0.26,-2.53 0.78,-3.58 0.53,-1.05 1.26,-1.88 2.21,-2.5 0.94,-0.62 2.04,-0.92 3.29,-0.92 0.93,0 1.74,0.15 2.43,0.46 0.68,0.31 1.22,0.7 1.61,1.17 0.38,0.47 0.59,0.96 0.6,1.46 0.02,0.44 -0.11,0.78 -0.38,1.02 -0.28,0.23 -0.61,0.34 -0.98,0.34 -0.28,0 -0.51,-0.05 -0.69,-0.15 -0.18,-0.1 -0.33,-0.23 -0.45,-0.39 -0.17,-0.29 -0.43,-0.57 -0.77,-0.83 -0.34,-0.27 -0.82,-0.4 -1.44,-0.4 -0.66,0 -1.22,0.17 -1.69,0.52 -0.47,0.36 -0.84,0.86 -1.1,1.51 -0.25,0.65 -0.38,1.42 -0.38,2.29 0,1.36 0.29,2.42 0.87,3.17 0.59,0.76 1.38,1.14 2.37,1.14 0.74,0 1.31,-0.18 1.7,-0.54 0.4,-0.36 0.69,-0.77 0.88,-1.21 0.16,-0.26 0.32,-0.48 0.49,-0.67 0.17,-0.19 0.42,-0.29 0.75,-0.29 0.41,0 0.75,0.15 1.02,0.44 0.26,0.29 0.39,0.66 0.37,1.11 0,0.38 -0.13,0.79 -0.37,1.25 -0.25,0.45 -0.61,0.88 -1.06,1.29 -0.46,0.4 -1.01,0.73 -1.65,0.98 -0.64,0.25 -1.37,0.37 -2.18,0.37z"/>
   <path class="fil0" d="M171.61 17.57c0,0.42 -0.15,0.77 -0.44,1.06 -0.29,0.3 -0.63,0.44 -1.03,0.44 -0.24,0 -0.47,-0.06 -0.7,-0.18 -0.22,-0.12 -0.39,-0.29 -0.51,-0.49l-4.01 -5.78 -1.61 1.3 0 3.63c0,0.43 -0.15,0.79 -0.44,1.08 -0.29,0.3 -0.64,0.44 -1.05,0.44 -0.42,0 -0.77,-0.14 -1.06,-0.44 -0.3,-0.29 -0.44,-0.65 -0.44,-1.08l0 -16.05c0,-0.43 0.14,-0.79 0.44,-1.07 0.29,-0.29 0.64,-0.43 1.06,-0.43 0.41,0 0.76,0.14 1.05,0.43 0.29,0.28 0.44,0.64 0.44,1.07l0 8.63 5.44 -4.43c0.25,-0.22 0.58,-0.34 0.95,-0.34 0.41,0 0.76,0.14 1.04,0.42 0.29,0.29 0.43,0.64 0.43,1.05 0,0.48 -0.17,0.86 -0.51,1.14l-3.46 2.8 4.12 5.96c0.2,0.26 0.29,0.54 0.29,0.84z"/>
   <path class="fil0" d="M178.72 19.28c-1.15,0 -2.13,-0.2 -2.95,-0.58 -0.82,-0.39 -1.44,-0.85 -1.88,-1.39 -0.44,-0.55 -0.67,-1.06 -0.68,-1.54 0,-0.38 0.12,-0.71 0.36,-0.99 0.24,-0.28 0.58,-0.42 1.03,-0.42 0.34,0 0.62,0.07 0.84,0.23 0.21,0.15 0.37,0.31 0.47,0.46 0.35,0.5 0.76,0.9 1.24,1.2 0.48,0.3 1.06,0.45 1.75,0.45 0.69,0 1.2,-0.14 1.52,-0.41 0.33,-0.28 0.49,-0.62 0.49,-1.03 0,-0.35 -0.11,-0.63 -0.33,-0.87 -0.23,-0.23 -0.55,-0.43 -0.97,-0.59 -0.42,-0.16 -0.92,-0.33 -1.51,-0.5 -0.55,-0.17 -1.08,-0.36 -1.61,-0.56 -0.52,-0.19 -1,-0.44 -1.43,-0.74 -0.43,-0.3 -0.77,-0.68 -1.03,-1.12 -0.26,-0.45 -0.39,-1.01 -0.39,-1.68 0,-0.75 0.21,-1.44 0.62,-2.06 0.41,-0.62 0.99,-1.11 1.73,-1.48 0.74,-0.37 1.61,-0.56 2.6,-0.56 0.96,0 1.8,0.17 2.52,0.49 0.71,0.33 1.26,0.74 1.66,1.23 0.39,0.49 0.59,0.99 0.59,1.5 0.02,0.38 -0.08,0.7 -0.28,0.95 -0.21,0.25 -0.52,0.37 -0.93,0.37 -0.31,0 -0.59,-0.07 -0.83,-0.22 -0.24,-0.15 -0.43,-0.31 -0.59,-0.5 -0.12,-0.19 -0.27,-0.38 -0.44,-0.57 -0.17,-0.19 -0.4,-0.35 -0.68,-0.49 -0.28,-0.14 -0.66,-0.2 -1.12,-0.2 -0.6,0 -1.07,0.12 -1.41,0.38 -0.33,0.26 -0.5,0.59 -0.5,0.98 0,0.36 0.13,0.65 0.39,0.85 0.26,0.21 0.62,0.39 1.09,0.56 0.48,0.16 1.06,0.36 1.74,0.6 0.59,0.19 1.12,0.4 1.61,0.62 0.49,0.22 0.92,0.49 1.29,0.79 0.37,0.3 0.66,0.65 0.87,1.05 0.2,0.41 0.31,0.89 0.31,1.46 0,0.77 -0.19,1.49 -0.57,2.15 -0.38,0.66 -0.95,1.19 -1.72,1.58 -0.76,0.4 -1.72,0.6 -2.87,0.6z"/>
   <path class="fil1" d="M63.93 84.76c2.72,0 4.58,-1.58 4.58,-2.72l0 -7.38c0,-0.42 -0.21,-0.78 -0.72,-0.78 -1.36,0 -3,0.5 -4.58,1.36 -2.29,1.07 -4.58,2.65 -4.58,5.15 0,2.86 2.15,4.37 5.3,4.37zm6.73 4.22c-2.58,1.79 -5.8,3.44 -10.81,3.44 -7.23,0 -12.39,-4.01 -12.39,-10.52 0,-8.6 6.09,-11.32 16.4,-13.89 3.15,-0.72 4.51,-1.36 4.51,-2.37 0,-1.57 -1.51,-2.79 -5.16,-2.79 -5.58,0 -10.45,3.22 -11.59,3.22 -0.72,0 -1.08,-0.43 -1.08,-1.14 0,-1.15 0.5,-4.08 1.79,-6.59 0.79,-1.5 5.73,-3.86 12.6,-3.86 10.95,0 15.54,4.79 15.54,14.39l0 12.74c0,2.22 1.14,3.08 2.79,3.08l0.86 0c0.86,0 1.36,0.43 1.36,1.14 0,1.79 -4.3,6.59 -8.16,6.59 -3.37,0 -6.66,-3.44 -6.66,-3.44z"/>
   <path class="fil1" d="M89.68 81.68l0 -18.68 -1.65 0c-0.79,0 -1.5,-1.22 -1.5,-3.87 0,-2.72 0.71,-3.94 1.5,-3.94l1.65 0 0 -6.87c0,-1.5 8.59,-4.3 10.81,-4.3 0.78,0 1.21,0.43 1.21,1.37l0 9.8 5.73 0c0.64,0 1.14,0.5 1.14,1.15 0,1.79 -2.43,6.66 -4.29,6.66l-2.58 0 0 15.96c0,4.01 2.08,5.73 5.08,5.73l1.15 0c0.72,0 1.07,0.57 1.07,1.14 0,1.79 -4.43,6.59 -8.23,6.59 -7.01,0 -11.09,-4.51 -11.09,-10.74z"/>
   <path class="fil1" d="M112.44 80.61l0 -23.48c0,-1.01 1.29,-1.94 6.01,-1.94 4.66,0 6.02,0.93 6.02,1.94l0 21.54c0,3.01 1.86,4.66 4.72,4.66 2.94,0 5.66,-2.29 5.66,-4.51l0 -21.69c0,-1.01 1.28,-1.94 6.01,-1.94 4.65,0 5.94,0.93 5.94,1.94l0 24.48c0,2.22 1.15,3.08 2.79,3.08l1 0c0.86,0 1.22,0.43 1.22,1.14 0,1.79 -4.29,6.59 -8.09,6.59 -2.22,0 -4.44,-1.79 -5.65,-2.94 -0.58,-0.5 -1.01,-0.86 -1.01,-0.86 -1.07,0.79 -5.72,3.8 -11.95,3.8 -6.8,0 -12.67,-4.51 -12.67,-11.81z"/>
   <path class="fil1" d="M156.14 89.77l0 -24.05c0,-2.94 -2,-4.16 -2,-5.37 0,-1.86 6.37,-5.87 9.02,-5.87 2,0 2.86,1.14 4.43,4.08 0,0 3.01,-4.08 7.66,-4.08 3.3,0 6.59,1.5 6.59,2.86 0,1.15 -3.36,5.87 -4.87,7.45 -0.5,0.5 -0.78,0.71 -1.29,0.71 -1.07,0 -1.93,-1.65 -3.93,-1.65 -2.01,0 -3.65,1.65 -3.65,3.8l0 22.12c0,1 -1.29,1.93 -6.02,1.93 -4.65,0 -5.94,-0.93 -5.94,-1.93z"/>
   <path class="fil1" d="M201.4 84.61l-1.01 0c-1.64,0 -2.72,-0.86 -2.72,-3.08l0 -24.4c0,-1.01 -1.36,-1.94 -6.01,-1.94 -4.72,0 -6.01,0.93 -6.01,1.94l0 26.77c0,5.29 3.15,8.52 8.87,8.52 3.8,0 8.09,-4.8 8.09,-6.66 0,-0.65 -0.36,-1.15 -1.21,-1.15z"/>
   <path class="fil2" d="M198.1 45.74c0,3.94 -1.79,5.59 -6.44,5.59 -4.65,0 -6.44,-1.65 -6.44,-5.59 0,-3.86 1.79,-5.58 6.44,-5.58 4.65,0 6.44,1.72 6.44,5.58z"/>
   <path class="fil1" d="M229.66 83.9l0 -16.47c0,-2.79 -1.51,-4.15 -4.08,-4.15 -2.94,0 -6.38,2.87 -6.38,4.73l0 21.76c0,1 -1.28,1.93 -6.01,1.93 -4.65,0 -5.94,-0.93 -5.94,-1.93l0 -24.05c0,-2.94 -2.01,-4.16 -2.01,-5.37 0,-1.86 6.38,-5.87 9.02,-5.87 1.72,0 2.58,0.86 3.8,3 0.21,0.29 0.43,0.65 0.64,1.08 2.44,-1.79 6.88,-4.08 12.03,-4.08 6.16,0 10.88,3.5 10.88,9.66l0 17.4c0,2.22 1.15,3.08 2.79,3.08l1.01 0c0.85,0 1.21,0.5 1.21,1.14 0,1.86 -4.29,6.66 -8.16,6.66 -5.65,0 -8.8,-3.22 -8.8,-8.52z"/>
   <path class="fil2" d="M244.02 49.32c0,-0.57 0.22,-0.86 0.65,-1.43 1.57,-1.93 7.15,-8.02 8.66,-9.52 0.36,-0.36 0.86,-0.57 1.36,-0.57 1.43,0 5.58,3.79 5.58,5.58 0,0.72 -0.14,1.15 -0.79,1.65 -1.36,1.29 -8.16,6.44 -10.23,7.73 -0.72,0.43 -1.08,0.57 -1.58,0.57 -0.86,0 -3.65,-3.01 -3.65,-4.01z"/>
   <path class="fil1" d="M255.42 86.05c0,-1.58 4.01,-6.09 5.37,-6.09 1.22,0 5.59,4.51 10.6,4.51 2.07,0 3.36,-1.22 3.36,-3 0,-2.51 -3.86,-3.37 -8.09,-4.87 -4.86,-1.72 -10.16,-4.23 -10.16,-10.17 0,-7.37 6.87,-11.95 15.96,-11.95 8.16,0 12.46,3.08 12.46,4.79 0,1.65 -3.65,6.23 -5.23,6.23 -1.07,0 -4.36,-3.58 -8.23,-3.58 -1.93,0 -3.29,1.29 -3.29,2.87 0,2.5 3.36,3.36 7.16,4.65 5.15,1.72 11.16,4.01 11.16,10.88 0,7.23 -6.44,12.1 -15.53,12.1 -8.59,0 -15.54,-4.8 -15.54,-6.37z"/>
   <path class="fil2" d="M35.18 30.55c-4.65,0 -6.44,1.72 -6.44,5.58 0,3.94 1.79,5.59 6.44,5.59 4.65,0 6.44,-1.65 6.44,-5.59 0,-3.86 -1.79,-5.58 -6.44,-5.58z"/>
   <path class="fil2" d="M6.44 30.55c-4.65,0 -6.44,1.72 -6.44,5.58 0,3.94 1.79,5.59 6.44,5.59 4.66,0 6.44,-1.65 6.44,-5.59 0,-3.86 -1.78,-5.58 -6.44,-5.58z"/>
   <path class="fil1" d="M40.93 55.95l0 36.47c-3.15,0 -5.99,-1.28 -8.06,-3.34 -2.06,-2.05 -3.33,-4.89 -3.33,-8.04l0 -13.58c-3.23,-1.27 -7.72,-3.59 -11.68,-7.86 -2.81,-3.03 -4.59,-6.22 -5.72,-8.94l0 30.38c0,3.15 -1.27,5.99 -3.33,8.04 -2.06,2.06 -4.91,3.34 -8.05,3.34l0 -36.47c0,-3.14 1.28,-5.98 3.34,-8.04 2.05,-2.06 4.9,-3.34 8.04,-3.34 0.74,2.97 2.54,8.47 7.23,13.52 3.37,3.64 7.13,5.87 10.17,7.23l0 -20.75c3.14,0 5.99,1.28 8.05,3.34 2.06,2.06 3.34,4.9 3.34,8.04z"/>
  </g>
 </g>
</svg>
