<?xml version="1.0" encoding="UTF-8"?>
<!DOCTYPE svg PUBLIC "-//W3C//DTD SVG 1.1//EN" "http://www.w3.org/Graphics/SVG/1.1/DTD/svg11.dtd">
<!-- Creator: CorelDRAW -->
<svg xmlns="http://www.w3.org/2000/svg" xml:space="preserve" width="398px" height="592px" version="1.1" style="shape-rendering:geometricPrecision; text-rendering:geometricPrecision; image-rendering:optimizeQuality; fill-rule:evenodd; clip-rule:evenodd"
viewBox="0 0 4.92 7.31"
 xmlns:xlink="http://www.w3.org/1999/xlink"
 xmlns:xodm="http://www.corel.com/coreldraw/odm/2003">
 <defs>
  <style type="text/css">
   <![CDATA[
    .fil0 {fill:#97BF04;fill-rule:nonzero}
    .fil1 {fill:#F21905;fill-rule:nonzero}
   ]]>
  </style>
 </defs>
 <g id="Capa_x0020_1">
  <metadata id="CorelCorpID_0Corel-Layer"/>
  <path class="fil0" d="M4.16 0c-0.55,0 -0.76,0.2 -0.76,0.66 0,0.47 0.21,0.66 0.76,0.66 0.55,0 0.76,-0.19 0.76,-0.66 0,-0.46 -0.21,-0.66 -0.76,-0.66z"/>
  <path class="fil0" d="M0.76 0c-0.55,0 -0.76,0.2 -0.76,0.66 0,0.47 0.21,0.66 0.76,0.66 0.55,0 0.76,-0.19 0.76,-0.66 0,-0.46 -0.21,-0.66 -0.76,-0.66z"/>
  <path class="fil1" d="M4.84 3l0 4.31c-0.37,0 -0.71,-0.15 -0.95,-0.39 -0.25,-0.24 -0.4,-0.58 -0.4,-0.95l0 -1.61c-0.38,-0.15 -0.91,-0.42 -1.38,-0.93 -0.33,-0.35 -0.54,-0.73 -0.67,-1.05l0 3.59c0,0.37 -0.16,0.71 -0.4,0.95 -0.24,0.24 -0.58,0.39 -0.95,0.39l0 -4.31c0,-0.37 0.15,-0.7 0.39,-0.95 0.25,-0.24 0.58,-0.39 0.96,-0.39 0.08,0.35 0.3,1 0.85,1.6 0.4,0.43 0.84,0.69 1.2,0.85l0 -2.45c0.37,0 0.71,0.15 0.95,0.39 0.25,0.25 0.4,0.58 0.4,0.95z"/>
 </g>
</svg>
